<svg width="167" height="32" viewBox="0 0 167 32" fill="none" xmlns="http://www.w3.org/2000/svg">
<path d="M100.021 30.6059C101.496 30.6059 102.691 29.4104 102.691 27.9355C102.691 26.4607 101.496 25.2651 100.021 25.2651C98.5462 25.2651 97.3506 26.4607 97.3506 27.9355C97.3506 29.4104 98.5462 30.6059 100.021 30.6059Z" fill="#18428F"/>
<path d="M94.6821 30.6059C96.1569 30.6059 97.3525 29.4104 97.3525 27.9355C97.3525 26.4607 96.1569 25.2651 94.6821 25.2651C93.2073 25.2651 92.0117 26.4607 92.0117 27.9355C92.0117 29.4104 93.2073 30.6059 94.6821 30.6059Z" fill="#18428F"/>
<path d="M85.5991 30.6059C87.0739 30.6059 88.2695 29.4104 88.2695 27.9355C88.2695 26.4607 87.0739 25.2651 85.5991 25.2651C84.1243 25.2651 82.9287 26.4607 82.9287 27.9355C82.9287 29.4104 84.1243 30.6059 85.5991 30.6059Z" fill="#18428F"/>
<path d="M45.8235 12.2799C46.3879 10.9173 45.7409 9.35514 44.3783 8.79072C43.0157 8.22631 41.4536 8.87336 40.8892 10.2359C40.3247 11.5985 40.9718 13.1607 42.3344 13.7251C43.697 14.2895 45.2591 13.6424 45.8235 12.2799Z" fill="#18428F"/>
<path d="M111.548 7.82342H111.436C111.455 7.82129 111.472 7.82129 111.491 7.82129C111.51 7.82129 111.531 7.82342 111.548 7.82342Z" fill="#18428F"/>
<path d="M11.4614 17.416C11.4422 17.4181 11.4252 17.4181 11.406 17.4181C11.3868 17.4181 11.3676 17.4181 11.3506 17.416H11.4614Z" fill="#18428F"/>
<path d="M21.1279 29.291C21.1151 29.2995 21.1023 29.3102 21.0874 29.3187C21.081 29.323 21.0767 29.3251 21.0703 29.3294L21.1279 29.291Z" fill="#18428F"/>
<path d="M21.6612 26.6956L21.5781 26.5698C21.593 26.5911 21.608 26.6103 21.6229 26.6316C21.6357 26.6529 21.6506 26.6743 21.6612 26.6956Z" fill="#18428F"/>
<path d="M3.66514 13.6057C3.66088 13.5929 3.65662 13.5823 3.65236 13.5695C3.63317 13.5119 3.61826 13.4523 3.60547 13.3926L3.66514 13.6057Z" fill="#18428F"/>
<path d="M22.2556 21.7765H22.1768V21.7744C22.2045 21.7744 22.23 21.7765 22.2556 21.7765Z" fill="#18428F"/>
<path d="M22.2556 21.7765H22.1768V21.7744C22.2045 21.7744 22.23 21.7765 22.2556 21.7765Z" fill="#18428F"/>
<path d="M15.8658 26.0389C15.6847 25.7916 15.5163 25.5359 15.3564 25.2759L15.8658 26.0389Z" fill="#18428F"/>
<path d="M38.9404 11.2593C38.9404 12.6552 37.8684 13.8018 36.5023 13.919C36.4256 13.9254 36.3489 13.9297 36.27 13.9297C34.7952 13.9297 33.5996 12.7341 33.5996 11.2593C33.5996 10.8884 33.6763 10.5347 33.8106 10.215C34.2177 9.2602 35.1639 8.58887 36.2679 8.58887C37.7448 8.58887 38.9404 9.78447 38.9404 11.2593Z" fill="#18428F"/>
<path d="M21.1279 29.291C21.1151 29.2995 21.1023 29.3102 21.0874 29.3187C21.081 29.323 21.0767 29.3251 21.0703 29.3294L21.1279 29.291Z" fill="#18428F"/>
<path d="M21.6612 26.6956L21.5781 26.5698C21.593 26.5911 21.608 26.6103 21.6229 26.6316C21.6357 26.6529 21.6506 26.6743 21.6612 26.6956Z" fill="#18428F"/>
<path d="M22.2556 21.7765H22.1768V21.7744C22.2045 21.7744 22.23 21.7765 22.2556 21.7765Z" fill="#18428F"/>
<path d="M22.2556 21.7765H22.1768V21.7744C22.2045 21.7744 22.23 21.7765 22.2556 21.7765Z" fill="#18428F"/>
<path d="M31.8564 11.2591C31.8564 12.1734 31.3982 12.979 30.697 13.4606C30.2665 13.7569 29.7465 13.9295 29.186 13.9295C27.756 13.9295 26.5902 12.8063 26.5199 11.3955C26.5178 11.3507 26.5156 11.306 26.5156 11.2612C26.5156 9.78643 27.7112 8.59082 29.186 8.59082C30.6608 8.58869 31.8564 9.7843 31.8564 11.2591Z" fill="#18428F"/>
<path d="M103.561 17.853V19.5964C103.561 20.792 102.6 21.7617 101.408 21.7766H96.9372C95.3324 21.7766 93.8555 21.2353 92.677 20.3231C91.4984 21.2353 90.0194 21.7766 88.4146 21.7766H79.0415C79.2824 22.4586 79.4145 23.1917 79.4145 23.9568C79.4145 27.5692 76.4862 30.4975 72.8738 30.4975H64.153C63.8567 30.4975 63.5669 30.4783 63.2813 30.4399C60.0802 30.0137 57.6123 27.2729 57.6123 23.9568V17.853C57.6123 17.6122 57.8084 17.4161 58.0492 17.4161H59.7925C60.3935 17.4161 60.9391 17.6591 61.3334 18.0534C61.7298 18.4476 61.9727 18.9932 61.9727 19.5964V23.9568C61.9727 25.1609 62.9488 26.137 64.153 26.137H72.8738C74.078 26.137 75.0541 25.1609 75.0541 23.9568C75.0541 22.7527 74.078 21.7766 72.8738 21.7766H68.2236V17.4161H88.4146C89.1157 17.4161 89.7508 17.1412 90.2218 16.6915C90.7205 16.2141 91.0317 15.5428 91.0317 14.799C91.0317 14.0552 90.7205 13.3818 90.2218 12.9065C89.753 12.459 89.1157 12.1819 88.4146 12.1819H79.683C79.4422 12.1819 79.2461 11.9858 79.2461 11.745V9.99955C79.2461 8.80395 80.2073 7.83425 81.3986 7.81934H88.3528C88.3719 7.81934 88.3933 7.81934 88.4124 7.81934C90.0172 7.81934 91.4963 8.36066 92.6748 9.27281C93.8449 10.1764 94.7187 11.4424 95.13 12.9044C95.2984 13.5054 95.39 14.1405 95.39 14.7969C95.39 15.4533 95.3005 16.0884 95.13 16.6894C95.5989 17.137 96.2361 17.414 96.9372 17.414H103.124C103.218 17.414 103.303 17.4417 103.373 17.4929C103.489 17.5738 103.561 17.7038 103.561 17.853Z" fill="#18428F"/>
<path d="M22.2556 21.7765H22.1768V21.7744C22.2045 21.7744 22.23 21.7765 22.2556 21.7765Z" fill="#18428F"/>
<path d="M15.3524 25.2717L15.3311 25.2397C15.3396 25.2504 15.346 25.2611 15.3524 25.2717Z" fill="#18428F"/>
<path d="M4.75364 17.4286L4.38281 16.1265C4.54478 16.5442 4.66839 16.9789 4.75364 17.4286Z" fill="#18428F"/>
<path d="M51.3613 17.8532V19.5965C51.3613 20.7921 50.4001 21.7618 49.2087 21.7767H22.2554C22.2299 21.7746 22.2022 21.7746 22.1766 21.7746C21.7866 21.7724 21.3902 21.8811 21.0407 22.1156C20.3395 22.5844 20.0241 23.4156 20.1796 24.1956C20.2287 24.4514 20.3288 24.7007 20.4844 24.9309L21.1749 25.9645L21.5756 26.5634L21.5798 26.5698L21.663 26.6955L21.6694 26.7041C22.1936 27.5672 21.9656 28.6925 21.1408 29.2828L21.1302 29.2892L21.0726 29.3276L21.0684 29.3297L20.3544 29.8071L19.3655 30.4678C19.1695 30.5999 18.9052 30.553 18.7624 30.3676C18.7603 30.3655 18.7581 30.3612 18.756 30.3591L18.7411 30.3377L18.7368 30.3314C18.7326 30.3271 18.7304 30.3228 18.7283 30.3164L15.8704 26.0412L15.8661 26.037L15.3567 25.274L15.3546 25.2697C15.3482 25.2591 15.3418 25.2484 15.3333 25.2378C14.517 23.8973 13.9565 22.3841 13.7157 20.7665C13.6752 20.8305 13.6326 20.8901 13.5857 20.9498C13.1936 21.4485 12.5862 21.7682 11.9042 21.7767H8.90133C8.55821 23.2259 7.95295 24.575 7.1367 25.7684L6.40783 26.7275L3.69268 30.2994C3.68628 30.3079 3.67989 30.3186 3.67349 30.3271L3.67136 30.3292C3.5307 30.5104 3.2707 30.5445 3.08955 30.4059L2.36281 29.854L1.42934 29.1443L1.42081 29.1379L1.38032 29.1059L1.37819 29.1038L1.3718 29.0995C0.721781 28.5816 0.45538 27.6823 0.777192 26.8724C0.830472 26.736 0.898671 26.6103 0.977525 26.4952L0.979655 26.4931L0.983918 26.4888L0.98818 26.4803L1.08409 26.3545L1.08622 26.3503L1.08835 26.3481L3.12791 23.665C3.28775 23.4774 3.43693 23.2792 3.57546 23.0767C4.4045 21.8684 4.89041 20.4063 4.89041 18.8314C4.89041 18.3519 4.84566 17.883 4.76041 17.4291C4.67516 16.9794 4.55155 16.5446 4.38958 16.1269L3.67136 13.6057L3.61169 13.3926C3.39431 12.425 3.94629 11.4361 4.90746 11.125H4.90959L5.04173 11.0866L6.01355 10.8095L6.83193 10.5772C6.84259 10.573 6.85538 10.5708 6.86603 10.5687C7.08342 10.5154 7.30932 10.639 7.38178 10.8543C7.38178 10.8564 7.38392 10.8586 7.38392 10.8586C7.38818 10.8713 7.39031 10.882 7.39457 10.8948L8.61788 15.1913C8.61788 15.1913 8.61788 15.1913 8.61788 15.1934L8.90559 16.2057C8.90559 16.2079 8.90559 16.21 8.90772 16.2121C8.91199 16.2249 8.91412 16.2356 8.91625 16.2484C9.00576 16.632 9.07822 17.022 9.12937 17.4184H11.3565C11.3757 17.4205 11.3927 17.4205 11.4119 17.4205C11.4311 17.4205 11.4503 17.4205 11.4673 17.4184C12.6459 17.3886 13.5921 16.4231 13.5921 15.2382V8.26062C13.5921 8.0198 13.7882 7.82373 14.029 7.82373H15.7617C16.8806 7.82373 17.8034 8.67195 17.9163 9.76312C17.9206 9.75886 17.9248 9.7546 17.9312 9.75034V18.8335C17.9312 19.3514 17.9845 19.8586 18.0847 20.3467C18.6686 18.6438 20.2841 17.4184 22.1851 17.4184H50.9329C51.1673 17.4163 51.3613 17.6123 51.3613 17.8532Z" fill="#18428F"/>
<path d="M8.91007 16.2462C8.90581 16.2334 8.90368 16.2227 8.89941 16.21L8.91007 16.2462Z" fill="#18428F"/>
<path d="M11.4614 17.416C11.4422 17.4181 11.4252 17.4181 11.406 17.4181C11.3868 17.4181 11.3676 17.4181 11.3506 17.416H11.4614Z" fill="#18428F"/>
<path d="M18.7561 30.3612C18.7519 30.3569 18.7497 30.3526 18.7455 30.3462C18.7433 30.3441 18.7433 30.342 18.7412 30.3398L18.7561 30.3612Z" fill="#18428F"/>
<path d="M3.66514 13.6057C3.66088 13.5929 3.65662 13.5823 3.65236 13.5695C3.63317 13.5119 3.61826 13.4523 3.60547 13.3926L3.66514 13.6057Z" fill="#18428F"/>
<path d="M4.75364 17.4286L4.38281 16.1265C4.54478 16.5442 4.66839 16.9789 4.75364 17.4286Z" fill="#18428F"/>
<path d="M3.57158 23.0767C3.43305 23.2813 3.28386 23.4773 3.12402 23.6649L3.57158 23.0767Z" fill="#18428F"/>
<path d="M7.13415 25.7681C6.90824 26.1005 6.66315 26.4202 6.40527 26.7271L7.13415 25.7681Z" fill="#18428F"/>
<path d="M8.89709 16.2057L8.60938 15.1934C8.7202 15.5237 8.8161 15.8626 8.89709 16.2057Z" fill="#18428F"/>
<path d="M3.57158 23.0767C3.43305 23.2813 3.28386 23.4773 3.12402 23.6649L3.57158 23.0767Z" fill="#18428F"/>
<path d="M4.75364 17.4286L4.38281 16.1265C4.54478 16.5442 4.66839 16.9789 4.75364 17.4286Z" fill="#18428F"/>
<path d="M3.57158 23.0767C3.43305 23.2813 3.28386 23.4773 3.12402 23.6649L3.57158 23.0767Z" fill="#18428F"/>
<path d="M120.92 14.801C120.92 18.6542 117.798 21.7785 113.942 21.7785H106.686V17.4181H113.874C113.898 17.4181 113.919 17.4181 113.942 17.4181C115.387 17.4181 116.559 16.2459 116.559 14.801C116.559 13.3624 115.4 12.1945 113.964 12.1839H109.748C109.507 12.1839 109.311 11.9878 109.311 11.747V10.0015C109.311 9.84167 109.328 9.68609 109.36 9.53691C109.569 8.5736 110.415 7.84686 111.434 7.82129H113.959C117.808 7.83621 120.92 10.9542 120.92 14.801Z" fill="#18428F"/>
<path d="M139.438 15.4469V30.6082C139.438 31.3776 138.816 31.9999 138.046 31.9999H134.815C134.046 31.9999 133.424 31.3776 133.424 30.6082V15.4469C133.424 14.6775 134.046 14.0552 134.815 14.0552H138.046C138.814 14.0552 139.438 14.6775 139.438 15.4469Z" fill="#18428F"/>
<path d="M149.623 24.5748V30.6061C149.623 31.1922 149.26 31.693 148.749 31.8976C148.589 31.9615 148.414 31.9978 148.231 31.9978H145C144.231 31.9978 143.608 31.3754 143.608 30.6061V24.5748C143.608 24.0931 143.851 23.669 144.224 23.4197C144.446 23.2705 144.715 23.1831 145.002 23.1831H148.233C148.998 23.1831 149.623 23.8054 149.623 24.5748Z" fill="#18428F"/>
<path d="M167.001 16.0266C167.001 23.0894 162.431 29.0866 156.087 31.2178C156.07 31.2242 156.053 31.2306 156.033 31.2349C155.903 31.2754 155.763 31.2967 155.62 31.2967C154.883 31.2967 154.277 30.7213 154.233 29.9945V26.3544C154.267 25.8174 154.606 25.3613 155.079 25.161C158.563 23.5945 160.988 20.093 160.988 16.0245C160.988 10.494 156.504 6.01212 150.976 6.01212H135.041C134.28 6.01212 133.662 5.4026 133.649 4.64389V1.39167C133.649 0.622311 134.272 0 135.041 0H150.976C159.825 0.0042624 167.001 7.17789 167.001 16.0266Z" fill="#18428F"/>
</svg>
